<svg width="271" height="234" viewBox="0 0 271 234" fill="none" xmlns="http://www.w3.org/2000/svg">
<path d="M130.127 0.308399C111.85 2.3954 94.4581 14.0952 84.2129 31.2656C77.7305 42.1116 74.3787 55.2028 74.8846 67.6932C75.0111 71.1399 75.1692 72.2783 75.6435 73.0372C76.4973 74.5234 77.6989 75.2823 79.4381 75.4404C81.114 75.5985 82.5369 74.8712 83.7702 73.2269C84.371 72.4048 84.4026 71.9937 84.3393 67.4719C84.2129 61.9065 84.5923 57.9855 85.7623 52.7996C90.4422 31.4869 107.486 14.2534 127.819 10.1742C131.676 9.41531 140.056 9.38369 143.629 10.1742C161.337 13.9688 176.136 27.977 182.302 46.76C184.389 53.0842 184.926 56.8155 184.958 64.9422C184.99 69.8434 185.116 72.1834 185.401 72.8791C186.381 75.219 189.606 76.1993 191.915 74.8396C193.938 73.638 194.35 72.4996 194.539 67.0924C195.14 51.9142 190.397 36.6095 181.416 24.5302C168.61 7.35993 149.163 -1.84184 130.127 0.308399Z" fill="#0758B2"/>
<path d="M3.95821 66.3967C2.78822 66.871 1.49175 68.2307 1.14392 69.3375C0.0687999 72.8158 -0.405518 93.4012 0.416633 101.465C1.68148 113.702 3.95821 124.517 7.59465 135.457C23.0258 181.814 60.6234 218.084 105.051 229.562C115.328 232.187 123.044 233.167 134.08 233.167C142.617 233.167 146.032 232.882 153.685 231.586C198.365 224.028 238.746 191.206 258.13 146.683C264.201 132.643 267.964 118.256 269.766 102.097C270.873 92.3577 270.399 71.551 269.039 68.6418C267.426 65.2267 262.398 65.2583 260.722 68.7051C260.09 70.0648 260.058 70.3177 260.406 73.5431C260.596 75.4404 260.849 80.1519 260.944 84.073C261.671 112.247 253.703 140.011 238.05 163.885C224.99 183.775 206.713 200.376 186.413 210.684C173.037 217.514 161.463 221.088 145.621 223.27C141.099 223.87 126.301 223.775 121.273 223.111C107.771 221.246 96.3554 217.736 84.1812 211.633C58.7894 198.921 37.5399 177.387 24.2274 150.794C16.5751 135.489 12.1165 120.437 10.0927 102.888C9.36544 96.7847 9.30219 81.2587 9.93462 74.5866C10.3457 70.2861 10.3457 69.9067 9.80813 68.7999C9.49192 68.1359 8.82788 67.3137 8.32194 66.9343C7.24682 66.1754 5.09657 65.8908 3.95821 66.3967Z" fill="#0758B2"/>
<path d="M112.735 107.03C110.111 107.568 98.2843 107.599 95.2803 107.093C93.2881 106.777 92.9403 106.809 91.9917 107.315C90.7584 107.979 88.9244 110.508 88.2287 112.5C87.4698 114.651 87.5963 116.421 88.6082 117.591C89.3671 118.54 89.5568 118.603 90.8849 118.445C92.3711 118.287 93.1617 117.623 95.4384 114.651C96.4819 113.259 97.4305 113.133 97.8732 114.303C98.5689 116.074 98.0313 130.651 97.2408 132.137C97.0511 132.485 96.2289 133.086 95.4068 133.465C94.1419 134.066 93.9206 134.351 93.8257 135.204C93.636 137.039 95.2803 137.924 99.897 138.461C102.458 138.746 108.213 138.588 109.984 138.177C113.684 137.291 114.285 134.699 111.123 133.086C110.427 132.706 109.731 132.074 109.573 131.631C109.13 130.525 109.162 114.872 109.573 114.082C109.763 113.734 110.237 113.481 110.68 113.481C111.312 113.481 111.755 113.923 112.862 115.631C113.779 117.086 114.569 117.939 115.233 118.224C116.625 118.793 118.427 118.445 119.344 117.37C120.862 115.631 119.692 110.35 117.257 108.042C115.929 106.777 115.075 106.587 112.735 107.03Z" fill="#0758B2"/>
<path d="M69.3508 107.188C67.3903 107.631 64.6077 109.243 63.1847 110.698C60.3704 113.607 59.6431 117.465 61.3191 120.848C62.8685 124.074 66.2836 126.445 71.9754 128.311C74.4735 129.133 75.5802 130.145 75.2956 131.315C74.9794 132.548 73.4616 133.181 71.1849 133.023C68.2757 132.833 66.5049 131.853 64.9239 129.513C62.6155 126.098 61.5088 125.497 60.2123 126.793C59.6115 127.394 59.5483 127.71 59.7064 129.829C59.9593 133.086 61.3191 135.963 62.995 136.817C66.8211 138.746 75.2008 139.284 79.2799 137.892C84.5606 136.058 87.4382 132.548 87.4382 127.868C87.4382 123.062 84.8452 120.469 77.8886 118.224C74.8846 117.244 73.8094 116.738 73.1454 116.01C72.0703 114.84 72.0386 114.303 73.0505 113.323C74.6 111.742 77.5407 112.564 80.9242 115.504C83.1693 117.497 84.1179 117.844 85.4777 117.149C87.5014 116.105 87.4066 113.006 85.2563 109.939C83.8017 107.852 82.7266 107.283 81.1456 107.726C80.2285 108.01 79.5645 107.979 77.6356 107.473C75.1375 106.809 71.4062 106.682 69.3508 107.188Z" fill="#0758B2"/>
<path d="M132.973 107.346C132.024 107.599 130.38 108.232 129.305 108.738C119.85 113.354 117.795 126.445 125.352 134.003C134.143 142.794 150.902 138.714 154.032 126.951C156.214 118.825 150.617 109.496 142.301 107.315C139.961 106.714 135.281 106.714 132.973 107.346ZM138.127 114.271C141.226 116.295 144.135 126.224 142.649 129.702C141.7 131.979 139.36 132.77 137.4 131.442C133.921 129.07 130.854 119.078 132.53 115.536C133.605 113.259 135.85 112.753 138.127 114.271Z" fill="#0758B2"/>
<path d="M168.547 107.409C160.357 109.844 155.108 117.402 156.341 124.991C157.954 135.078 169.021 141.371 178.665 137.671C179.899 137.228 181.606 136.627 182.46 136.343C184.42 135.742 184.832 135.394 185.907 133.37C186.982 131.442 187.108 129.291 186.255 128.343C185.464 127.457 184.832 127.552 182.934 128.817C181.005 130.113 179.582 130.556 177.211 130.556C173.416 130.556 170.728 128.722 168.926 124.928C168.009 122.967 167.914 122.556 167.914 119.584C167.914 116.01 168.199 115.283 170.317 113.86C171.234 113.228 171.677 113.133 173.227 113.259C176.357 113.544 177.812 114.682 180.405 118.92C181.1 120.026 181.606 120.469 182.428 120.722C183.946 121.133 185.432 120.69 186.571 119.489C188.342 117.623 187.962 113.038 185.749 110.034C184.832 108.738 184.8 108.738 182.839 108.738C181.385 108.738 180.246 108.516 178.792 107.915C176.104 106.777 171.393 106.556 168.547 107.409Z" fill="#0758B2"/>
<path d="M194.002 107.062C188.847 107.568 187.172 109.686 189.891 112.184C191.029 113.228 191.219 113.576 191.504 115.504C191.978 118.382 191.725 131.03 191.187 132.295C190.966 132.801 190.365 133.592 189.828 134.066C189.1 134.635 188.847 135.141 188.847 135.869C188.847 138.019 190.429 138.556 196.848 138.556C201.717 138.556 203.741 138.209 204.785 137.165C205.765 136.185 205.543 135.11 204.089 133.75C202.951 132.706 202.761 132.327 202.634 130.999C202.445 129.07 203.014 128.153 204.184 128.438C204.943 128.627 207.947 131.884 211.457 136.248L212.848 137.987H218.919C225.718 137.987 226.066 137.892 226.066 135.805C226.066 134.54 225.275 133.497 223.884 132.896C223.378 132.675 222.429 131.948 221.797 131.283C219.109 128.501 211.615 119.584 211.362 118.92C210.982 117.939 211.393 117.212 213.575 114.967C215.757 112.69 216.611 112.216 218.603 112.216C220.564 112.216 221.828 111.33 221.828 109.971C221.828 107.536 220.5 106.998 214.397 107.03C209.528 107.03 208.073 107.409 207.125 108.864C206.65 109.591 206.619 109.813 207.061 111.046C207.599 112.659 207.567 112.753 205.322 115.599C202.856 118.73 201.528 118.129 202.255 114.271C202.445 113.228 202.856 112.374 203.52 111.71C204.721 110.477 204.721 108.959 203.488 108.073C202.097 107.03 198.207 106.619 194.002 107.062Z" fill="#0758B2"/>
</svg>
