<svg width="239" height="239" viewBox="0 0 239 239" fill="none" xmlns="http://www.w3.org/2000/svg">
<path d="M163.122 229.897C155.739 232.772 148.239 234.926 140.516 236.306C130.325 238.127 120.076 238.63 109.753 237.815C96.2136 236.745 83.1625 233.626 70.8481 227.929C37.2559 212.389 15.0682 186.848 4.52911 151.384C0.619709 138.229 -0.738223 124.696 0.375443 111.022C3.36934 74.2627 19.7652 44.8021 49.3623 22.78C63.3718 12.356 79.1306 5.6988 96.2591 2.31465C107.458 0.101968 118.784 -0.646056 130.127 0.603994C170.945 5.10233 201.889 25.0999 222.88 60.3105C229.899 72.083 234.31 84.9031 236.68 98.3934C238.696 109.873 239.042 121.415 237.663 133.003C234.854 156.587 225.805 177.496 210.56 195.687C197.68 211.056 181.831 222.403 163.122 229.897ZM141.172 214.353C147.931 212.557 154.43 210.07 160.596 206.784C183.373 194.642 199.564 176.504 209.525 152.787C214.172 141.721 216.716 130.146 217.457 118.168C217.839 111.989 217.628 105.833 216.996 99.682C216.52 95.0408 212.157 91.492 207.501 91.9864C202.683 92.498 199.178 96.8654 199.722 101.605C200.989 112.654 200.329 123.602 197.453 134.34C191.386 156.992 178.592 174.902 158.9 187.731C147.685 195.038 135.361 199.314 121.919 199.992C108.238 200.682 95.508 197.31 83.6294 190.616C69.8434 182.847 59.0894 171.981 51.0346 158.427C44.536 147.491 40.5574 135.687 39.0792 123.047C38.2579 116.024 38.2776 109.006 39.0778 101.985C39.2814 100.197 39.1186 98.4518 38.2798 96.8231C36.491 93.3497 32.7178 91.3871 29.1254 92.0492C25.0385 92.8024 22.2716 95.8186 21.8051 100.054C20.4867 112.023 21.0464 123.895 23.6931 135.655C28.8515 158.577 40.1303 177.931 57.7883 193.466C71.2737 205.33 86.8203 213.091 104.613 216.184C116.881 218.316 128.997 217.563 141.172 214.353ZM107.964 56.3838C116.445 52.1534 124.861 52.1033 132.866 57.3639C142.805 63.8955 147.808 73.325 148.215 85.178C148.272 86.8318 148.032 88.4937 148.035 90.1517C148.043 94.5161 151.496 98.2219 155.886 98.6473C160.306 99.0758 164.485 96.0264 165.184 91.6651C165.986 86.6644 165.692 81.6546 164.748 76.6978C161.945 61.9831 154.47 50.3357 141.635 42.4104C133.089 37.1333 123.74 34.9101 113.734 36.5656C99.4007 38.937 88.5108 46.6406 80.6484 58.6911C75.6951 66.283 73.1128 74.7072 72.6265 83.7376C72.4855 86.3558 72.4738 89.0404 72.8902 91.616C73.6322 96.2064 78.0241 99.2546 82.463 98.6139C87.1624 97.9357 90.2459 93.9803 90.0703 89.2267C89.9644 86.3577 89.9225 83.4129 90.4325 80.6075C92.3869 69.8566 98.1927 61.7547 107.964 56.3838Z" fill="#0758B2"/>
<path d="M141.085 214.371C128.997 217.563 116.881 218.316 104.613 216.183C86.8203 213.091 71.2736 205.33 57.7882 193.466C40.1303 177.931 28.8515 158.577 23.6931 135.655C21.0464 123.895 20.4867 112.023 21.8051 100.054C22.2716 95.8186 25.0385 92.8024 29.1254 92.0492C32.7178 91.3871 36.491 93.3497 38.2798 96.8231C39.1186 98.4518 39.2814 100.197 39.0777 101.985C38.2776 109.006 38.2579 116.024 39.0792 123.047C40.5574 135.687 44.5359 147.491 51.0346 158.427C59.0894 171.981 69.8434 182.847 83.6293 190.616C95.508 197.31 108.238 200.682 121.919 199.992C135.361 199.314 147.685 195.038 158.9 187.731C178.592 174.902 191.386 156.992 197.453 134.34C200.329 123.602 200.989 112.654 199.722 101.605C199.178 96.8654 202.683 92.498 207.501 91.9864C212.157 91.492 216.52 95.0408 216.996 99.682C217.628 105.833 217.839 111.989 217.457 118.168C216.716 130.146 214.172 141.721 209.525 152.787C199.564 176.504 183.373 194.642 160.596 206.784C154.43 210.07 147.931 212.557 141.085 214.371Z" fill="white"/>
<path d="M107.891 56.4185C98.1927 61.7547 92.3869 69.8566 90.4325 80.6075C89.9225 83.4129 89.9643 86.3577 90.0703 89.2267C90.2459 93.9803 87.1624 97.9357 82.463 98.6139C78.0241 99.2546 73.6322 96.2064 72.8901 91.616C72.4738 89.0404 72.4855 86.3558 72.6265 83.7376C73.1128 74.7072 75.6951 66.283 80.6484 58.6911C88.5108 46.6406 99.4007 38.937 113.734 36.5656C123.74 34.9101 133.089 37.1333 141.635 42.4104C154.47 50.3357 161.945 61.9831 164.748 76.6978C165.692 81.6545 165.986 86.6644 165.184 91.6651C164.485 96.0264 160.306 99.0758 155.886 98.6473C151.496 98.2219 148.043 94.5161 148.035 90.1517C148.032 88.4937 148.272 86.8318 148.215 85.178C147.808 73.325 142.805 63.8955 132.866 57.3639C124.861 52.1033 116.445 52.1534 107.891 56.4185Z" fill="white"/>
</svg>
