<svg width="503" height="109" viewBox="0 0 503 109" fill="none" xmlns="http://www.w3.org/2000/svg">
<path d="M409.321 0.720322C406.207 2.44413 405.596 6.39221 408.098 8.89452C411.601 12.3977 418.719 10.2291 418.719 5.66932C418.719 4.6128 418.441 3.27823 418.163 2.66656C416.828 0.275468 412.102 -0.836668 409.321 0.720322Z" fill="#0758B2"/>
<path d="M461.592 0.720322C458.478 2.44413 457.866 6.39221 460.368 8.89452C463.872 12.3977 470.989 10.2291 470.989 5.66932C470.989 4.6128 470.711 3.27823 470.433 2.66656C469.099 0.275468 464.372 -0.836668 461.592 0.720322Z" fill="#0758B2"/>
<path d="M53.3825 12.5645V16.9019L43.4845 16.9575C32.53 17.0131 27.8034 17.9028 21.353 21.0724C17.4049 23.0186 12.7896 27.1891 11.177 30.4699C6.45039 39.7007 7.95177 49.4874 15.2363 56.6607C17.8498 59.2742 19.6848 60.5532 26.024 64.2788C26.5244 64.5569 22.1315 67.3928 13.4012 72.3974L0 80.1268V86.2991L0.0556068 92.5271L13.4568 100.256C20.8525 104.483 27.3585 108.097 27.9146 108.264C28.8043 108.486 28.9155 108.097 28.9155 104.371V100.256H39.6476C48.8784 100.256 50.9358 100.09 54.6615 99.0331C63.0025 96.7532 68.3407 92.8051 71.2879 86.7996C73.0117 83.352 73.1229 82.7403 73.1229 77.2352C73.1229 72.0638 72.9561 71.0073 71.6771 68.2825C70.843 66.5587 69.2304 64.0564 68.0627 62.7775C65.6716 60.1639 58.8876 55.4374 55.8292 54.3252C54.7727 53.9916 53.9386 53.5467 53.9386 53.3243C53.9386 53.1575 60.3334 49.4318 68.1183 44.9833L82.298 36.9203V30.6924V24.52L68.1739 16.4014C60.4446 11.9529 53.9386 8.28283 53.7161 8.28283C53.5493 8.28283 53.3825 10.2291 53.3825 12.5645ZM50.491 37.532L53.3825 37.9212V45.5394V53.2131L47.7106 50.9888C37.9238 47.2076 35.5883 45.5394 35.5883 42.203C35.5883 40.646 37.8126 38.4217 40.0369 37.81C42.3724 37.1983 46.4873 37.0871 50.491 37.532ZM36.0332 68.0601C43.7625 70.8961 45.2639 71.9526 45.4863 74.7329C45.82 79.0702 43.0396 80.2936 34.7542 79.4595C32.0295 79.1815 29.5828 78.9034 29.3604 78.9034C29.0823 78.9034 28.9155 75.9007 28.9155 72.175C28.9155 67.0036 29.0823 65.5022 29.6384 65.7246C29.9721 65.8358 32.8636 66.8924 36.0332 68.0601Z" fill="#0758B2"/>
<path d="M399.257 18.2921C386.856 20.9612 374.79 24.5756 374.79 25.6878C374.79 27.0779 395.42 83.63 396.754 85.8543C398.867 89.5799 400.702 91.415 404.317 93.8617C411.879 98.9219 420.554 100.256 442.741 99.9228C455.92 99.7004 458.478 99.4779 462.204 98.477C470.711 96.1415 476.606 92.1379 479.831 86.5216C481.332 83.8524 502.963 26.1326 502.574 25.799C502.463 25.6878 498.904 24.52 494.567 23.1299C487.282 20.7944 473.38 17.4024 469.599 17.0687L467.931 16.9019L466.986 22.4626C466.485 25.5209 464.317 38.9222 462.148 52.2122C459.979 65.5022 457.977 77.3465 457.644 78.4586C456.754 81.5726 453.64 84.2973 449.358 85.6319C446.356 86.5772 444.298 86.7996 438.404 86.744C429.284 86.6884 424.78 85.5207 421.499 82.2399C418.886 79.6263 419.386 81.8506 413.992 46.6515C411.657 31.5265 409.6 18.5701 409.433 17.8472C409.043 16.2902 408.543 16.2902 399.257 18.2921Z" fill="#0758B2"/>
<path d="M90.8615 46.2066C88.7485 46.7627 86.1349 49.543 84.2443 53.3243C81.5752 58.6626 81.6864 63.7784 84.6336 65.5578C87.6919 67.3928 90.3611 66.2251 94.3091 61.1093C97.3675 57.2168 98.3128 56.7163 99.703 58.3845C100.593 59.4411 100.704 60.6644 100.593 68.2825C100.481 78.4586 99.7586 88.1341 98.9801 89.858C98.7021 90.5252 97.2563 91.693 95.8105 92.3603C93.2526 93.5836 93.1414 93.7504 93.1414 95.8635C93.1414 97.9209 93.3082 98.1434 95.6437 99.3111C100.982 101.98 117.831 102.258 123.67 99.8116C127.618 98.199 127.784 94.1953 124.003 92.249C120.055 90.2472 120.055 90.2472 120.055 74.0656C120.055 66.1139 120.222 59.2186 120.389 58.7738C121.334 56.3271 123.892 57.2724 126.005 60.8312C128.118 64.5013 130.287 66.1139 133.123 66.1139C136.014 66.1139 137.627 65.0017 138.461 62.4438C139.851 58.2733 137.404 51.1 133.401 47.4856C131.343 45.6506 130.898 45.4837 129.063 45.8174C125.838 46.4291 97.4787 46.7627 94.9208 46.2622C93.6419 45.9842 91.8068 45.9286 90.8615 46.2066Z" fill="#0758B2"/>
<path d="M161.982 46.3735C143.91 50.3216 134.513 69.5059 142.687 86.0211C146.023 92.8607 151.417 97.4205 159.313 100.145C163.762 101.702 172.881 101.813 177.608 100.368C183.113 98.6994 187.45 96.1971 191.12 92.5271C200.462 83.1852 201.352 69.6727 193.456 57.7729C190.62 53.5467 187.617 50.9888 182.668 48.5421C176.44 45.4838 169.378 44.7609 161.982 46.3735ZM169.378 58.2733C174.216 61.2205 178.553 71.7858 178.664 80.8497C178.72 85.6875 177.608 88.0785 174.716 89.3019C169.211 91.5818 163.984 85.7987 160.648 73.6208C157.979 63.7228 159.981 57.2168 165.708 57.2168C166.765 57.2168 168.433 57.7173 169.378 58.2733Z" fill="#0758B2"/>
<path d="M226.876 45.9286C223.595 46.4847 218.368 48.5421 215.365 50.4884C203.02 58.4957 198.683 73.0647 204.967 85.465C208.525 92.5827 213.419 96.8644 221.315 99.756C224.874 101.091 226.32 101.313 231.324 101.313C236.384 101.313 237.663 101.146 241.055 99.8116C243.224 98.9775 246.227 97.9209 247.728 97.4205C251.231 96.364 252.788 94.9182 254.457 91.415C257.737 84.5197 254.401 79.7931 249.23 83.8524C243.724 88.1898 234.772 88.3566 229.378 84.2417C222.371 78.9034 219.814 64.7793 224.929 59.4411C230.101 54.0472 238.775 56.9944 243.78 65.7246C245.615 68.9498 247.339 70.1732 250.175 70.1176C254.568 70.062 257.126 66.8924 257.07 61.6653C257.015 57.4392 256.069 54.3252 253.956 51.5449C252.121 49.1538 252.066 49.1538 248.507 49.0982C246.449 49.0982 244.225 48.6533 243.28 48.1529C239.22 46.0954 231.936 45.0945 226.876 45.9286Z" fill="#0758B2"/>
<path d="M264.021 46.8739C260.073 47.708 258.571 48.987 258.571 51.4337C258.571 53.1575 260.24 55.5486 261.463 55.5486C261.685 55.5486 262.297 56.3827 262.853 57.328C263.743 58.9406 263.854 60.7756 263.854 73.0647C263.854 80.6828 263.632 87.9673 263.409 89.1351C263.076 90.5808 262.242 91.971 260.963 93.1944C259.517 94.4733 258.961 95.4742 258.961 96.642C258.961 100.312 261.852 101.313 272.473 101.369C281.259 101.369 285.318 100.59 286.931 98.5326C288.544 96.4752 288.321 95.6967 285.708 93.1944C283.817 91.3593 283.372 90.5808 283.15 88.3566C282.872 85.4094 283.706 83.352 285.207 83.352C286.43 83.352 292.547 89.6911 297.218 95.7523C299.053 98.1434 301.055 100.201 301.722 100.368C302.334 100.534 307.172 100.59 312.343 100.479C320.74 100.312 321.963 100.201 323.02 99.2555C324.299 98.0878 324.577 95.6411 323.631 93.8616C323.298 93.3056 321.852 92.1934 320.406 91.4705C318.404 90.4696 315.791 87.8561 309.452 80.516C300.221 69.9507 298.052 67.0592 298.052 65.391C298.052 64.8349 299.832 62.4994 302.056 60.2195C306.226 55.8822 307.95 54.9925 312.343 54.9925C314.178 54.9925 314.901 54.7145 315.791 53.5467C318.071 50.6552 316.792 47.8192 312.677 46.7071C309.952 45.9286 298.886 45.9286 295.383 46.7071C293.771 47.0407 292.102 47.8192 291.379 48.5977C290.101 49.9323 290.101 50.0435 291.157 54.9925C291.435 56.1602 290.823 57.2724 288.377 60.3864C284.929 64.7793 283.706 65.5578 282.649 64.112C281.203 62.1102 282.371 56.3827 284.762 54.1028C287.709 51.2668 286.486 47.9304 282.093 46.7071C279.257 45.9286 267.969 46.0398 264.021 46.8739Z" fill="#0758B2"/>
<path d="M345.04 47.2632C340.703 47.8748 334.586 49.8211 332.362 51.3781C330.415 52.657 330.415 52.7126 331.249 60.1083C331.528 62.4994 332.028 64.7237 332.362 65.0573C332.806 65.5022 333.863 65.1685 336.254 63.6672C340.091 61.3317 345.318 59.8303 348.154 60.2751C353.103 61.1092 355.661 66.0026 353.548 70.618C351.991 74.1212 347.598 79.7931 342.983 84.2417C339.034 88.1341 338.812 88.2454 334.864 88.9126C330.249 89.6911 330.36 89.3575 331.861 96.4195L332.806 100.868L347.82 100.646C358.052 100.534 364.502 100.646 368.006 101.146C370.842 101.535 373.344 101.702 373.511 101.48C373.733 101.257 374.011 97.8097 374.122 93.806L374.345 86.5215L365.114 86.7996L355.828 87.0776L360.499 82.2954C365.893 76.7348 368.784 72.6198 370.341 68.1713C375.068 54.6589 363.112 44.7609 345.04 47.2632Z" fill="#0758B2"/>
</svg>
